<?xml version="1.0" encoding="utf-8"?>
<!-- Generator: Adobe Illustrator 22.0.1, SVG Export Plug-In . SVG Version: 6.00 Build 0)  -->
<svg version="1.1" id="Layer_4" xmlns="http://www.w3.org/2000/svg" xmlns:xlink="http://www.w3.org/1999/xlink" x="0px" y="0px"
	 viewBox="0 0 792 612" style="enable-background:new 0 0 792 612;" xml:space="preserve">
<style type="text/css">
	.st0{fill:#DCDBDB;}
	.st1{fill:#EEEEEE;}
	.st2{fill:#BCBCBC;}
	.st3{fill:#636363;}
	.st4{fill:#A5D5A1;}
</style>
<g>
	<polygon class="st0" points="774.7,440.1 45.9,440.1 45.9,422.4 774.7,422.4 	"/>
	<polygon class="st0" points="589.9,104.4 202.6,104.4 202.6,86.8 589.9,86.8 	"/>
	<polygon class="st0" points="189.9,596.8 189.9,130.6 207.6,130.6 207.6,596.8 	"/>
	<polygon class="st0" points="584.4,596.8 584.4,130.6 602.1,130.6 602.1,596.8 	"/>
	<polygon class="st0" points="587.9,200.5 362.8,13.2 376.2,5 601.2,192.2 	"/>
	<path class="st0" d="M197.7,588.4v-0.3c-0.1,0-14.1,1.1-23.3-7.4c-5.7-5.3-8.6-13.6-8.6-24.6c0-23.4-5.8-39.3-17.8-48.5
		c-11.2-8.7-25.4-9.9-39.1-9.9H46.7h-0.5c-1,0.1-16.7,1.1-36.5,9.7c0.7,6,2.1,11.9,4.2,17.5c17.1-8,31.3-9.4,33.1-9.6h61.9
		c23.1,0,39.4,2.9,39.4,40.8c0,16.2,4.8,28.9,14.3,37.6c11.6,10.7,26.6,12,33.3,12v0.2h587v-17.6L197.7,588.4L197.7,588.4z"/>
	<path class="st0" d="M420.5,428.8h-49.1v40.7l0,0v135.1h49.1v-69.8l0,0V428.8L420.5,428.8z"/>
	<rect x="371.5" y="511.3" class="st1" width="49.1" height="18.1"/>
	<rect x="371.5" y="548.5" class="st1" width="49.1" height="18.1"/>
	<path class="st0" d="M91.2,69.4c-4.9-2.3-25.9-12.2-52.1-26.9c-0.8-7.6-7.2-13.5-15-13.5c-8.3,0-15,6.7-15,15s6.7,15.1,15.1,15.1
		c2.2,0,4.3-0.5,6.1-1.3C60.4,74.7,83.5,85.3,85,86l1.1,0.5l115.2,17.3l2.6-17.4L91.2,69.4z"/>
	<path class="st0" d="M771.4,65.5c-6.6,0-12.2,4.3-14.3,10.2c-36.9,10.6-67.9,11-68.5,11h-99.8v17.6h99.8c1.2,0,28.9-0.2,64.1-9.2
		c3.2-0.8,6.4-1.7,9.5-2.6c2.5,1.9,5.6,3,9,3c8.3,0,15.1-6.7,15.1-15.1C786.5,72.2,779.7,65.5,771.4,65.5z"/>
	<circle class="st0" cx="774.7" cy="431.2" r="15.1"/>
	<g>
		<circle class="st0" cx="775.9" cy="595.8" r="15.1"/>
		
			<ellipse transform="matrix(1.914517e-02 -0.9998 0.9998 1.914517e-02 -494.1229 523.4897)" class="st0" cx="19.7" cy="513.6" rx="15.1" ry="15.1"/>
	</g>
	<path class="st0" d="M200.7,204.3H29.1c-2.8-3.2-6.8-5.2-11.4-5.2c-8.3,0-15.1,6.7-15.1,15.1c0,8.1,6.3,14.6,14.3,15
		c45.8,43.1,91.5,85.6,98.1,89.8c9.9,6.3,16.2,9.8,19.6,11.5C121,344.4,70.9,393.1,25.5,436.9c-0.5,0-0.9-0.1-1.4-0.1
		c-8.3,0-15.1,6.7-15.1,15.1S15.7,467,24.1,467s15.1-6.7,15.1-15.1c0-1.6-0.2-3.1-0.7-4.6c42-40.6,104.8-101.4,110.3-108
		c5.2-6.1,10-6.7,10.5-6.8h41.4v-17.6h-41.5H142c-2.4-1.2-8.6-4.5-19.5-11.4c-5.1-3.3-43.5-38.8-89-81.5h167.2L200.7,204.3
		L200.7,204.3z"/>
	<path class="st0" d="M771.5,238c10.8,0,19.5-8.8,19.5-19.6s-8.8-19.6-19.6-19.6c-5.3,0-10,2.1-13.5,5.4H593.3v17.6h158.9
		c0.4,2.3,1.3,4.5,2.5,6.5c-40.9,26.6-83.5,54.4-99.3,64.9c-8.2,5.5-22.7,16-28,19.9h-38.8v17.6h11.1v1.7H640
		c6.3,3.3,30.3,16.1,39.5,20.5c10.8,5.1,44.4,17.9,74.4,29.1c2.2,5.6,7.6,9.5,14,9.5c8.3,0,15.1-6.7,15.1-15.1s-6.7-15.1-15.1-15.1
		c-3.8,0-7.2,1.4-9.8,3.7c-29.7-11.1-62.7-23.6-73-28.5c-7.7-3.7-26.6-13.6-35.5-18.4c5.1-3.6,10.4-7.4,14.2-9.9
		C680.5,297.3,728.1,266.2,771.5,238z"/>
	<path class="st0" d="M602.1,130.7h-17.8c0-27.8-19-54.3-53.4-74.5C495,35.1,447.1,23.5,396,23.5s-99,11.6-134.8,32.7
		c-34.4,20.2-53.4,46.7-53.4,74.5H190c0-34.4,20.1-66.4,60.5-90.2C289.5,17.6,341.2,5,396,5s106.5,12.6,145.5,35.5
		C582,64.3,602.1,96.3,602.1,130.7L602.1,130.7z"/>
	<rect x="371.5" y="474" class="st1" width="49.1" height="18.1"/>
</g>
<g>
	<g>
		<polygon class="st2" points="763.9,122.6 617.6,122.6 617.6,177 667.3,177 667.3,188.1 714.2,188.1 714.2,177 763.9,177 		"/>
		<polygon class="st2" points="174.4,122.6 28.1,122.6 28.1,177 77.8,177 77.8,188.1 124.7,188.1 124.7,177 174.4,177 		"/>
	</g>
	<polygon class="st2" points="782.9,451.8 616,451.8 616,476.2 616,508.8 616,580.3 704.7,580.3 704.7,508.8 782.9,508.8 	"/>
</g>
<g id="parking">
	<path class="st2" d="M179.8,302.6h-43.4v-70.1h43.4L179.8,302.6L179.8,302.6z"/>
	<path class="st3" d="M166.2,266.2c-0.3,0-0.6,0.1-1,0.1l-2.6-5.7c-0.2-0.3-0.5-0.5-0.8-0.5h-1.6c-0.5,0-0.9,0.4-0.9,0.9
		s0.4,0.9,0.9,0.9h1.1l0.7,1.6h-7.1l-0.5-1.1h0.4c0.5,0,0.9-0.4,0.9-0.9s-0.4-0.9-0.9-0.9h-3.1c-0.5,0-0.9,0.4-0.9,0.9
		s0.4,0.9,0.9,0.9h0.9l0.9,1.8l-1.6,2.4c-0.5-0.2-1.1-0.3-1.7-0.3c-2.4,0-4.3,1.9-4.3,4.3s1.9,4.3,4.3,4.3c2.1,0,3.9-1.5,4.3-3.5
		h0.7c0.4,1,1.5,1.6,2.6,1.4c1.2-0.2,2-1.5,1.8-2.7c0-0.2-0.1-0.3-0.2-0.5l3.8-3.9l0.6,1.3c-1.1,0.8-1.8,2.1-1.8,3.5
		c0,2.4,1.9,4.3,4.3,4.3s4.3-1.9,4.3-4.3C170.5,268.1,168.6,266.2,166.2,266.2L166.2,266.2z M155.5,268.9c-0.2,0.2-0.4,0.5-0.5,0.8
		h-0.7c-0.2-0.9-0.5-1.6-1.2-2.2l1-1.6L155.5,268.9L155.5,268.9z M152.1,269c0.2,0.2,0.3,0.5,0.4,0.7h-0.9L152.1,269z M150,273.2
		c-1.5,0-2.6-1.2-2.6-2.6c0-1.5,1.2-2.6,2.6-2.6c0.2,0,0.5,0.1,0.7,0.1l-1.4,2c-0.2,0.2-0.2,0.6-0.1,0.9c0.2,0.3,0.5,0.5,0.8,0.5
		h2.5C152.1,272.4,151.2,273.2,150,273.2L150,273.2z M158,268.4c-0.3-0.2-0.6-0.2-1-0.2l-1.4-3.1h5.7
		C161.3,265.1,158,268.4,158,268.4z M166.2,273.2c-1.5,0-2.6-1.2-2.6-2.6c0-0.8,0.3-1.4,0.9-1.9l1,2.2c0.2,0.3,0.5,0.5,0.8,0.5
		c0.2,0,0.2,0,0.3-0.1c0.5-0.2,0.6-0.7,0.4-1.1l-1-2.2c0.1,0,0.2,0,0.2,0c1.5,0,2.6,1.2,2.6,2.6C168.8,272,167.6,273.2,166.2,273.2z
		"/>
	<path class="st2" d="M654.1,414.7h-43.4v-70.1h43.4V414.7z"/>
	<path class="st3" d="M640.4,378.3c-0.3,0-0.6,0.1-1,0.1l-2.6-5.7c-0.2-0.3-0.5-0.5-0.8-0.5h-1.6c-0.5,0-0.9,0.4-0.9,0.9
		s0.4,0.9,0.9,0.9h1.1l0.7,1.5h-7.1l-0.5-1.1h0.4c0.5,0,0.9-0.4,0.9-0.9s-0.4-0.9-0.9-0.9h-3.1c-0.5,0-0.9,0.4-0.9,0.9
		s0.4,0.9,0.9,0.9h0.9l0.9,1.8l-1.6,2.4c-0.5-0.2-1.1-0.3-1.7-0.3c-2.4,0-4.3,1.9-4.3,4.3s1.9,4.3,4.3,4.3c2.1,0,3.9-1.5,4.3-3.5
		h0.7c0.4,1,1.5,1.6,2.6,1.4c1.2-0.2,2-1.5,1.8-2.7c0-0.2-0.1-0.3-0.2-0.5l3.8-3.9l0.6,1.3c-1.1,0.8-1.8,2.1-1.8,3.5
		c0,2.4,1.9,4.3,4.3,4.3c2.4,0,4.3-1.9,4.3-4.3C644.8,380.3,642.8,378.3,640.4,378.3L640.4,378.3z M629.7,381.1
		c-0.2,0.2-0.4,0.5-0.5,0.8h-0.7c-0.2-0.9-0.5-1.6-1.2-2.2l1-1.6L629.7,381.1L629.7,381.1z M626.4,381.1c0.2,0.2,0.3,0.5,0.4,0.7
		h-0.9L626.4,381.1z M624.3,385.3c-1.5,0-2.6-1.2-2.6-2.6c0-1.5,1.2-2.6,2.6-2.6c0.2,0,0.5,0.1,0.7,0.1l-1.4,2
		c-0.2,0.2-0.2,0.6-0.1,0.9c0.2,0.3,0.5,0.5,0.8,0.5h2.5C626.4,384.5,625.4,385.3,624.3,385.3L624.3,385.3z M632.3,380.6
		c-0.3-0.2-0.6-0.2-1-0.2l-1.4-3.1h5.7C635.5,377.3,632.3,380.6,632.3,380.6z M640.4,385.3c-1.5,0-2.6-1.2-2.6-2.6
		c0-0.8,0.3-1.4,0.9-1.9l1,2.2c0.2,0.3,0.5,0.5,0.8,0.5c0.2,0,0.2,0,0.3-0.1c0.5-0.2,0.6-0.7,0.4-1.1l-1-2.3c0.1,0,0.2,0,0.2,0
		c1.5,0,2.6,1.2,2.6,2.6C643,384.2,641.9,385.3,640.4,385.3z"/>
	<path class="st2" d="M274.1,181.2h-53v-63.6h53V181.2z"/>
	<g>
		<path class="st3" d="M239,143.9c0.2,0,0.2,0,0.5,0c0.8,0,1.4-0.2,1.9-0.6c0.3-0.3,0.5-0.8,0.5-1.3s-0.2-1-0.6-1.3
			s-0.9-0.5-1.7-0.5s-1.3,0.1-1.7,0.2v5.6h1.2L239,143.9L239,143.9z M239,141.2c0.1,0,0.2-0.1,0.5-0.1c0.6,0,1,0.3,1,0.9
			c0,0.5-0.4,0.9-1.1,0.9c-0.2,0-0.3,0-0.5,0v-1.7H239z"/>
		<path class="st3" d="M236.6,147.7h6.3c0.8,0,1.5-0.6,1.5-1.5v-6.3c0-0.8-0.6-1.5-1.5-1.5h-6.3c-0.8,0-1.5,0.6-1.5,1.5v6.3
			C235.2,147.1,235.8,147.7,236.6,147.7z M236.3,140c0-0.2,0.2-0.4,0.4-0.4h6.1c0.2,0,0.4,0.2,0.4,0.4v6.1c0,0.2-0.2,0.4-0.4,0.4
			h-6.1c-0.2,0-0.4-0.2-0.4-0.4V140z"/>
		<path class="st3" d="M241,155.3c-1.4,0-2.6,1.2-2.6,2.6c0,1.4,1.2,2.6,2.6,2.6s2.6-1.2,2.6-2.6C243.6,156.4,242.4,155.3,241,155.3
			z M241,158.5c-0.4,0-0.8-0.3-0.8-0.8c0-0.4,0.3-0.8,0.8-0.8c0.4,0,0.8,0.3,0.8,0.8S241.5,158.5,241,158.5z"/>
		<path class="st3" d="M259.5,155.7l-0.4-3.3c-0.1-0.6-0.6-1.1-1.3-1.1l-0.9,0.1l-2.8-2.6c-0.2-0.2-0.6-0.4-1-0.4h-5.7
			c-1.3,0-2.6,0.5-3.5,1.2l-3.2,2.6l-4.3,1.1c-0.5,0.2-0.9,0.6-0.9,1.2v1.2c-0.2,0-0.3,0.2-0.3,0.3v1.6c0,0.2,0.2,0.4,0.4,0.4h2.4
			c0-0.1,0-0.2,0-0.3c0-1.8,1.4-3.2,3.2-3.2s3.2,1.4,3.2,3.2c0,0.1,0,0.2,0,0.3h6.7c0-0.1,0-0.2,0-0.3c0-1.8,1.4-3.2,3.2-3.2
			s3.2,1.4,3.2,3.2c0,0.1,0,0.2,0,0.3h2.2c0.2,0,0.4-0.2,0.4-0.4V156C259.9,155.9,259.7,155.7,259.5,155.7L259.5,155.7z M251,151.6
			l-8,0.4l1.6-1.2c0.9-0.7,1.9-1,2.9-1h3.5V151.6z M252.3,151.5v-1.8h0.5c0.2,0,0.4,0.1,0.5,0.2l1.6,1.5
			C254.9,151.4,252.3,151.5,252.3,151.5z"/>
		<path class="st3" d="M254.1,155.3c-1.4,0-2.6,1.2-2.6,2.6c0,1.4,1.2,2.6,2.6,2.6c1.4,0,2.6-1.2,2.6-2.6
			C256.5,156.4,255.5,155.3,254.1,155.3z M254.1,158.5c-0.4,0-0.8-0.3-0.8-0.8c0-0.4,0.3-0.8,0.8-0.8c0.4,0,0.8,0.3,0.8,0.8
			C254.8,158.2,254.5,158.5,254.1,158.5z"/>
	</g>
</g>
<g>
	<ellipse class="st4" cx="241.5" cy="551.6" rx="21" ry="21"/>
	<circle class="st4" cx="241.5" cy="492.2" r="21"/>
	<circle class="st4" cx="153.4" cy="388.7" r="21"/>
	<circle class="st4" cx="757.9" cy="551.6" r="21"/>
	<circle class="st4" cx="362.8" cy="57.2" r="21"/>
	<circle class="st4" cx="314" cy="61.7" r="21"/>
	<circle class="st4" cx="179.8" cy="44" r="21"/>
	<circle class="st4" cx="622.2" cy="51.7" r="21"/>
	<circle class="st4" cx="688.8" cy="50.5" r="21"/>
	<circle class="st4" cx="747.1" cy="36.2" r="21"/>
	<circle class="st4" cx="460.1" cy="392.6" r="18"/>
	<circle class="st4" cx="331.9" cy="392.6" r="18"/>
	<circle class="st4" cx="27.1" cy="278.2" r="21"/>
	<circle class="st4" cx="531.6" cy="520.3" r="39.6"/>
	<circle class="st4" cx="637" cy="264.4" r="21"/>
	<path class="st3" d="M542.8,527.6h-4.5v-1.7h0.9c0.3,0,0.5-0.2,0.5-0.5s-0.2-0.5-0.5-0.5h-2.9c-0.3,0-0.5,0.2-0.5,0.5
		s0.2,0.5,0.5,0.5h0.9v1.7h-9v-3.9h4.5c0.2,0,0.5-0.2,0.5-0.3c0.1-0.2,0.1-0.5-0.1-0.6l-2.9-3.1h1.3c0.2,0,0.5-0.2,0.5-0.3
		c0.1-0.2,0.1-0.5-0.1-0.6l-2.6-2.9h1.3c0.2,0,0.5-0.2,0.5-0.3c0.1-0.2,0.1-0.5-0.1-0.6l-3.6-3.9c-0.2-0.2-0.6-0.2-0.9,0l-3.6,3.9
		c-0.2,0.2-0.2,0.4-0.1,0.6c0.1,0.2,0.3,0.3,0.5,0.3h1.3l-2.6,2.9c-0.2,0.2-0.2,0.4-0.1,0.6c0.1,0.2,0.3,0.3,0.5,0.3h1.3l-2.9,3.1
		c-0.2,0.2-0.2,0.4-0.1,0.6c0.1,0.2,0.3,0.3,0.5,0.3h4.5v3.9H520c-0.6,0-1.2,0.5-1.2,1.2c0,0.6,0.5,1.2,1.2,1.2h23
		c0.6,0,1.2-0.5,1.2-1.2C544,528.1,543.5,527.6,542.8,527.6L542.8,527.6z"/>
	<circle class="st4" cx="749.3" cy="311.9" r="39.6"/>
	<path class="st3" d="M760.5,319.1H756v-1.7h0.9c0.3,0,0.5-0.2,0.5-0.5s-0.2-0.5-0.5-0.5H754c-0.3,0-0.5,0.2-0.5,0.5
		s0.2,0.5,0.5,0.5h0.9v1.7h-9v-3.9h4.5c0.2,0,0.5-0.2,0.5-0.3c0.1-0.2,0.1-0.5-0.1-0.6l-2.9-3.1h1.3c0.2,0,0.5-0.2,0.5-0.3
		c0.1-0.2,0.1-0.5-0.1-0.6l-2.6-2.9h1.3c0.2,0,0.5-0.2,0.5-0.3c0.1-0.2,0.1-0.5-0.1-0.6l-3.6-3.9c-0.2-0.2-0.6-0.2-0.9,0l-3.6,3.9
		c-0.2,0.2-0.2,0.4-0.1,0.6c0.1,0.2,0.3,0.3,0.5,0.3h1.3l-2.6,2.9c-0.2,0.2-0.2,0.4-0.1,0.6c0.1,0.2,0.3,0.3,0.5,0.3h1.3l-2.9,3.1
		c-0.2,0.2-0.2,0.4-0.1,0.6c0.1,0.2,0.3,0.3,0.5,0.3h4.5v3.9h-5.7c-0.6,0-1.2,0.5-1.2,1.2c0,0.6,0.5,1.2,1.2,1.2h22.6
		c0.6,0,1.2-0.5,1.2-1.2C761.7,319.7,761.1,319.1,760.5,319.1L760.5,319.1z"/>
	
		<ellipse transform="matrix(4.531320e-02 -0.999 0.999 4.531320e-02 -291.3861 379.5317)" class="st4" cx="52.9" cy="342.2" rx="39.6" ry="39.6"/>
	<path class="st3" d="M64.1,349.4h-4.5v-1.7h0.9c0.3,0,0.5-0.2,0.5-0.5s-0.2-0.5-0.5-0.5h-2.9c-0.3,0-0.5,0.2-0.5,0.5
		s0.2,0.5,0.5,0.5h0.9v1.7h-9v-3.9H54c0.2,0,0.5-0.2,0.5-0.3c0.1-0.2,0.1-0.5-0.1-0.6l-2.9-3.1h1.3c0.2,0,0.5-0.2,0.5-0.3
		c0.1-0.2,0.1-0.5-0.1-0.6l-2.6-2.9H52c0.2,0,0.5-0.2,0.5-0.3c0.1-0.2,0.1-0.5-0.1-0.6l-3.6-3.9c-0.2-0.2-0.6-0.2-0.9,0l-3.6,3.9
		c-0.2,0.2-0.2,0.4-0.1,0.6c0.1,0.2,0.3,0.3,0.5,0.3H46l-2.6,2.9c-0.2,0.2-0.2,0.4-0.1,0.6c0.1,0.2,0.3,0.3,0.5,0.3h1.3l-2.9,3.1
		c-0.2,0.2-0.2,0.4-0.1,0.6c0.1,0.2,0.3,0.3,0.5,0.3h4.5v3.9h-5.7c-0.6,0-1.2,0.5-1.2,1.2c0,0.6,0.5,1.2,1.2,1.2H64
		c0.6,0,1.2-0.5,1.2-1.2C65.3,350,64.8,349.4,64.1,349.4L64.1,349.4z"/>
</g>
</svg>
