<?xml version="1.0" encoding="utf-8"?>
<!-- Generator: Adobe Illustrator 22.0.1, SVG Export Plug-In . SVG Version: 6.00 Build 0)  -->
<svg version="1.1" id="Layer_1" xmlns="http://www.w3.org/2000/svg" xmlns:xlink="http://www.w3.org/1999/xlink" x="0px" y="0px"
	 viewBox="0 0 792 612" style="enable-background:new 0 0 792 612;" xml:space="preserve">
<style type="text/css">
	.st0{display:none;}
	.st1{display:inline;fill:#737475;}
	.st2{display:inline;fill:#C9C9C9;}
	.st3{display:inline;}
	.st4{fill:#DCDBDB;}
	.st5{display:inline;fill:#DCDBDB;}
	.st6{fill:#E5E5E5;}
	.st7{fill:#BCBCBC;}
	.st8{fill:#C9C9C9;}
	.st9{display:inline;fill:#ED1C24;}
	.st10{display:inline;fill:#747475;}
	.st11{display:inline;fill:#C8C8C8;}
	.st12{fill:#636363;}
	.st13{fill:#A5D5A1;}
	.st14{fill:#DBDADA;}
	.st15{fill:#EDECED;}
</style>
<g id="Third_Floor" class="st0">
	<path class="st1" d="M539.1,330v-12.4h-24.6v-16.5h3.9v5.7h42.2V235h-42.2v26h-23v0.4h-1.6v-24.2h13v-16.4h-13v-20.5h44.2v-68
		h-99.9v68h2.1v21.6h-22.9v-22.1h-68.8v-7.2H340v7.2h-33v-70.5h-43.5v85.2h46.5l-7,6.1l12.9,14.9l-10,16.6l-43.1-12.3l-9,10.3v4.2
		h-19.1v4.6h-11.5v25.2h11.5v4.6h19.1v4.2l9,10.2l32.8-9.4v4.8h15.5v-3.1H321v66.2h44.8h2.2v-2.2v-44.9h66v44.9v2.2h2.2h1.9v7.8H475
		v0.9h21.3v0h72.3v-35L539.1,330z M566.4,368.2H494v0h-16.8v-0.9h-36.9v-7.8h-4.1v-44.9v-2.2H434h-65.9h-2.2v2.2v44.9h-42.6v-66.2
		h-14.6v3.1h-11v-5.6l-34.2,9.8l-7.5-8.6v-5.6h-19.1v-4.6h-11.5v-20.8h11.5v-4.6h19.1v-5.6l7.5-8.6l41.4,11.8v4l13.8-22.9L306,220.9
		l9.9-8.6h-50.2v-80.7h39.1V202h37.5v-7.2h4.1v7.2h68.7v22.1h27.3v-26h-2.1v-63.5h95.4v63.5h-44.2v25h13V235h-13v28.7h6.1v-0.4h23
		v-26h37.7v67.3h-37.7v-5.7h-8.4v20.9h24.6v12.1l29.5,5.4V368.2z"/>
	<polygon class="st2" points="494.9,322.6 494.4,322.6 494.4,273.4 520.7,273.4 520.7,304.5 558.4,304.5 558.4,237.3 520.7,237.3 
		520.7,263.3 497.7,263.3 497.7,263.7 491.6,263.7 491.6,235 504.6,235 504.6,223.1 491.6,223.1 491.6,198.2 535.8,198.2 
		535.8,134.6 440.3,134.6 440.3,198.2 442.4,198.2 442.4,224.2 415.1,224.2 415.1,202 346.4,202 346.4,194.9 342.2,194.9 342.2,202 
		304.8,202 304.8,131.6 265.7,131.6 265.7,212.3 315.9,212.3 306,220.9 318.5,235.3 304.8,258.2 304.8,254.2 263.4,242.4 
		255.9,250.9 255.9,256.5 236.8,256.5 236.8,261.1 225.3,261.1 225.3,281.9 236.8,281.9 236.8,286.5 255.9,286.5 255.9,292.1 
		263.4,300.6 297.7,290.9 297.7,296.5 308.7,296.5 308.7,293.4 323.2,293.4 323.2,359.6 365.9,359.6 365.9,312.4 436.3,312.4 
		436.3,359.6 440.3,359.6 440.3,367.4 477.3,367.4 477.3,368.3 494,368.3 494,368.2 566.4,368.2 566.4,337.2 	"/>
	<g id="auditorium" class="st3">
		<polygon class="st4" points="226.6,279.8 226.6,263.3 236.2,263.3 236.2,279.8 		"/>
		<polygon class="st4" points="238.2,284.7 238.2,258.3 255.1,258.3 255.1,284.7 		"/>
		<polygon class="st4" points="302.1,257.5 302.1,255.8 264.6,245.2 257.3,253.3 257.3,268.8 257.3,270.2 257.3,272.8 257.3,274.2 
			257.3,289.7 264.6,297.9 302.1,287.3 302.1,285.5 		"/>
		<rect x="304.4" y="259.6" class="st4" width="15.3" height="23.7"/>
	</g>
	<polygon class="st5" points="294,209.6 302.1,209.6 302.1,134.6 294,134.6 276.4,134.6 268.4,134.6 268.4,209.6 	"/>
	<polygon class="st5" points="379.7,281.1 384.1,281.1 384.1,254.4 379.7,254.4 370.1,254.4 365.7,254.4 365.7,281.1 	"/>
	<polygon class="st5" points="379.7,282.5 384.1,282.5 384.1,311.1 379.7,311.1 370.1,311.1 365.7,311.1 365.7,282.5 	"/>
	<polygon class="st5" points="336.5,321.3 340.3,321.3 340.3,314.6 336.5,314.6 328.2,314.6 324.4,314.6 324.4,321.3 	"/>
	<polygon class="st5" points="336.5,304.7 340.3,304.7 340.3,313.3 336.5,313.3 328.2,313.3 324.4,313.3 324.4,304.7 	"/>
	<polygon class="st5" points="336.5,303.4 340.3,303.4 340.3,294.9 336.5,294.9 328.2,294.9 324.4,294.9 324.4,303.4 	"/>
	<polygon class="st5" points="360.6,271.9 364.4,271.9 364.4,255.2 360.6,255.2 352.3,255.2 348.5,255.2 348.5,271.9 	"/>
	<polygon class="st5" points="328.2,266.4 324.4,266.4 324.4,255.2 328.2,255.2 336.5,255.2 340.3,255.2 340.3,266.4 	"/>
	<polygon class="st5" points="322.9,209.2 338.5,209.5 338.7,230.8 323.5,237.6 309.6,220.9 	"/>
	<polygon class="st5" points="360.6,203.3 364.4,203.3 364.4,231.9 360.6,231.9 352.3,231.9 348.5,231.9 348.5,203.3 	"/>
	<polygon class="st5" points="360.6,253.9 364.4,253.9 364.4,242.4 360.6,242.4 352.3,242.4 348.5,242.4 348.5,253.9 	"/>
	<polygon class="st5" points="360.6,233.2 364.4,233.2 364.4,241.1 360.6,241.1 352.3,241.1 348.5,241.1 348.5,233.2 	"/>
	<polygon class="st5" points="402.4,253.1 414,253.1 414,219.8 402.4,219.8 377.2,219.8 365.7,219.8 365.7,253.1 	"/>
	<polygon class="st5" points="402.4,203.3 414,203.3 414,218.5 402.4,218.5 377.2,218.5 365.7,218.5 365.7,203.3 	"/>
	<polygon class="st5" points="336.5,322.6 340.3,322.6 340.3,332 336.5,332 328.2,332 324.4,332 324.4,322.6 	"/>
	<polygon class="st5" points="336.5,341.3 340.3,341.3 340.3,333.3 336.5,333.3 328.2,333.3 324.4,333.3 324.4,341.3 	"/>
	<polygon class="st5" points="336.5,342.6 340.3,342.6 340.3,352.3 336.5,352.3 328.2,352.3 324.4,352.3 324.4,342.6 	"/>
	<polygon class="st5" points="352.7,338.6 349,338.6 349,357.2 352.7,357.2 360.7,357.2 364.4,357.2 364.4,338.6 	"/>
	<polygon class="st5" points="352.7,337.3 349,337.3 349,328.8 352.7,328.8 360.7,328.8 364.4,328.8 364.4,337.3 	"/>
	<polygon class="st5" points="352.7,320.5 349,320.5 349,327.5 352.7,327.5 360.7,327.5 364.4,327.5 364.4,320.5 	"/>
	<polygon class="st5" points="392.2,267.5 385.4,267.5 385.4,254.4 392.2,254.4 407.1,254.4 414,254.4 414,267.5 	"/>
	<polygon class="st5" points="388.3,268.8 385.4,268.8 385.4,278 388.3,278 394.8,278 397.8,278 397.8,268.8 	"/>
	<polygon class="st5" points="410.4,268.8 414,268.8 414,278 410.4,278 402.7,278 399.1,278 399.1,268.8 	"/>
	<polygon class="st5" points="407.1,294.5 414,294.5 414,279.3 407.1,279.3 392.2,279.3 385.4,279.3 385.4,294.5 	"/>
	<polygon class="st5" points="391.2,295.8 393.1,295.8 393.1,311.1 391.2,311.1 387.2,311.1 385.4,311.1 385.4,295.8 	"/>
	<polygon class="st5" points="396.4,295.8 394.4,295.8 394.4,311.1 396.4,311.1 400.7,311.1 402.7,311.1 402.7,295.8 	"/>
	<polygon class="st5" points="411.6,295.7 414,295.7 414,311.1 411.6,311.1 406.4,311.1 404,311.1 404,295.7 	"/>
	<g class="st3">
		<g>
			<polygon class="st6" points="465.5,161.1 465.5,142.6 456.3,151.8 			"/>
			<polygon class="st4" points="447,161.1 447,161.1 465.5,161.1 465.5,161.1 456.3,151.8 			"/>
			<polygon class="st7" points="447,142.6 447,161.1 456.3,151.8 			"/>
			<polygon class="st8" points="456.3,151.8 465.5,142.6 447,142.6 			"/>
		</g>
		<g>
			<polygon class="st6" points="497.3,161.1 497.3,142.6 488.1,151.8 			"/>
			<polygon class="st4" points="478.9,161.1 478.9,161.1 497.3,161.1 497.3,161.1 488.1,151.8 			"/>
			<polygon class="st7" points="478.9,142.6 478.9,161.1 488.1,151.8 			"/>
			<polygon class="st8" points="488.1,151.8 497.3,142.6 478.9,142.6 			"/>
		</g>
		<g>
			<polygon class="st6" points="529.1,161.1 529.1,142.6 519.9,151.8 			"/>
			<polygon class="st4" points="510.7,161.1 510.7,161.1 529.1,161.1 529.1,161.1 519.9,151.8 			"/>
			<polygon class="st7" points="510.7,142.6 510.7,161.1 519.9,151.8 			"/>
			<polygon class="st8" points="519.9,151.8 529.1,142.6 510.7,142.6 			"/>
		</g>
		<g>
			<polygon class="st6" points="465.5,190.2 465.5,171.7 456.3,180.9 			"/>
			<polygon class="st4" points="447,190.2 447,190.2 465.5,190.2 465.5,190.2 456.3,180.9 			"/>
			<polygon class="st7" points="447,171.7 447,190.2 456.3,180.9 			"/>
			<polygon class="st8" points="456.3,180.9 465.5,171.7 447,171.7 			"/>
		</g>
		<g>
			<polygon class="st6" points="497.3,190.2 497.3,171.7 488.1,180.9 			"/>
			<polygon class="st4" points="478.9,190.2 478.9,190.2 497.3,190.2 497.3,190.2 488.1,180.9 			"/>
			<polygon class="st7" points="478.9,171.7 478.9,190.2 488.1,180.9 			"/>
			<polygon class="st8" points="488.1,180.9 497.3,171.7 478.9,171.7 			"/>
		</g>
		<g>
			<polygon class="st6" points="529.1,190.2 529.1,171.7 519.9,180.9 			"/>
			<polygon class="st4" points="510.7,190.2 510.7,190.2 529.1,190.2 529.1,190.2 519.9,180.9 			"/>
			<polygon class="st7" points="510.7,171.7 510.7,190.2 519.9,180.9 			"/>
			<polygon class="st8" points="519.9,180.9 529.1,171.7 510.7,171.7 			"/>
		</g>
	</g>
	<g>
		<polygon class="st9" points="493.5,325.3 493,325.4 493,324 488.7,324 488.7,324 476.8,324 476.8,364.9 493.5,364.9 493.5,364.9 
			553.5,364.9 553.5,342.9 553.5,336.4 		"/>
		<polygon class="st9" points="449.5,288.1 440.5,288.1 440.5,263.8 449.5,263.8 468.9,263.8 477.9,263.8 477.9,288.1 		"/>
		<polygon class="st9" points="452.5,225 440.5,225 440.5,263 452.5,263 478.7,263 490.7,263 490.7,225 		"/>
		<polygon class="st9" points="488.8,273.3 478.7,273.3 478.7,263.8 488.8,263.8 510.6,263.8 520.7,263.8 520.7,273.3 		"/>
		<polygon class="st9" points="530.1,263 521.5,263 521.5,238.1 530.1,238.1 548.8,238.1 557.4,238.1 557.4,263 		"/>
		<polygon class="st9" points="548.3,283.4 545.4,283.4 545.4,263.8 548.3,263.8 554.5,263.8 557.4,263.8 557.4,283.4 		"/>
		<polygon class="st9" points="542.3,284.2 537.5,284.2 537.5,303.7 542.3,303.7 552.6,303.7 557.4,303.7 557.4,284.2 		"/>
		<polygon class="st9" points="533,284.2 536.7,284.2 536.7,303.7 533,303.7 525.2,303.7 521.5,303.7 521.5,284.2 		"/>
		<polygon class="st9" points="448.3,324 451.8,324 451.8,334.5 448.3,334.5 440.7,334.5 437.2,334.5 437.2,324 		"/>
		<polygon class="st9" points="472.4,324 475.9,324 475.9,334.5 472.4,334.5 464.8,334.5 461.3,334.5 461.3,324 		"/>
		<polygon class="st9" points="448.3,343.2 451.8,343.2 451.8,335.4 448.3,335.4 440.7,335.4 437.2,335.4 437.2,343.2 		"/>
		<polygon class="st9" points="464.8,343.2 461.3,343.2 461.3,335.4 464.8,335.4 472.4,335.4 475.9,335.4 475.9,343.2 		"/>
		<polygon class="st9" points="464.8,344.1 461.3,344.1 461.3,352.7 464.8,352.7 472.4,352.7 475.9,352.7 475.9,344.1 		"/>
		<polygon class="st9" points="464.8,361.1 461.3,361.1 461.3,353.6 464.8,353.6 472.4,353.6 475.9,353.6 475.9,361.1 		"/>
		<polygon class="st9" points="470.1,367.4 475.9,367.4 475.9,362 470.1,362 457.6,362 451.8,362 451.8,367.4 		"/>
		<polygon class="st9" points="532.2,283.4 535.5,283.4 535.5,263.8 532.2,263.8 524.9,263.8 521.5,263.8 521.5,283.4 		"/>
		<polygon class="st9" points="482.1,288.1 478.7,288.1 478.7,273.3 482.1,273.3 489.6,273.3 493,273.3 493,288.1 		"/>
	</g>
</g>
<g class="st0">
	<path id="outline" class="st10" d="M496.7,320.8v-45.1h21.7v31.1h42.1v-71.7h-42.1v26h-23v0.4h-1.6v-24.2h13V221h-13v-20.5h44.2
		v-67.9h-99.8v67.9h2V222h-22.8v-22.1h-68.7v-7.2h-8.6v7.2h-33v-70.4h-43.5v85.1h46.4l-7,6.1l12.9,14.9l-10,16.6L263,239.9l-9,10.2
		v4.2h-19.1v4.6h-11.4v25.2h11.4v4.6h19.1v4.2l9,10.2l32.7-9.4v4.9h15.5v-3h10.1v66.1h44.8h2.2v-2.2v-44.9h65.9v44.9v2.2h2.2h1.9
		v7.8h36.8v0.9h21.3v0h72.2v-35L496.7,320.8z M566.4,368.1h-72.2v0h-16.8v-0.9h-36.8v-7.8h-4.1v-44.9v-2.2h-2.2h-65.9h-2.2v2.2v44.9
		h-42.6v-66.1h-14.5v3h-11v-5.6l-34.2,9.8l-7.5-8.5v-5.6h-19.1v-4.6h-11.4v-20.7h11.4v-4.6h19.1V251l7.5-8.5l41.3,11.8v4l13.8-22.8
		l-12.5-14.5l9.9-8.5H266v-80.7H305v70.4h37.4V195h4.1v7.2h68.7v22.1h27.3v-26h-2v-63.5h95.3v63.5h-44.2v24.9h13v11.9h-13v28.6h6.1
		v-0.4h23v-26h37.7v67.2h-37.7v-31.1h-26.2v46.9v2.3l71.9,14.6V368.1z"/>
	<polygon id="ground" class="st11" points="494.9,322.6 494.5,322.6 494.5,273.4 520.7,273.4 520.7,304.5 558.4,304.5 558.4,237.3 
		520.7,237.3 520.7,263.3 497.7,263.3 497.7,263.7 491.7,263.7 491.7,235.1 504.7,235.1 504.7,223.2 491.7,223.2 491.7,198.3 
		535.8,198.3 535.8,134.8 440.5,134.8 440.5,198.3 442.5,198.3 442.5,224.2 415.2,224.2 415.2,202.1 346.6,202.1 346.6,195 
		342.5,195 342.5,202.1 305,202.1 305,131.7 266,131.7 266,212.4 316.1,212.4 306.3,220.9 318.8,235.4 305,258.2 305,254.3 
		263.7,242.4 256.2,251 256.2,256.6 237.1,256.6 237.1,261.2 225.7,261.2 225.7,281.9 237.1,281.9 237.1,286.5 256.2,286.5 
		256.2,292.1 263.7,300.7 297.9,290.9 297.9,296.4 308.9,296.4 308.9,293.4 323.5,293.4 323.5,359.5 366.1,359.5 366.1,312.4 
		436.4,312.4 436.4,359.5 440.5,359.5 440.5,367.3 477.3,367.3 477.3,368.2 494.1,368.2 494.1,368.1 566.4,368.1 566.4,337.2 	"/>
</g>
<polygon class="st4" points="539.1,317.6 518.5,317.6 518.5,298.9 529.1,298.9 529.1,263.6 512.3,263.6 504.6,263.6 489,263.6 
	489,260.7 489,228.9 408.9,228.9 408.9,207.5 327.8,207.5 327.8,325.3 327.8,362.2 388.8,362.2 408.9,362.2 417.6,362.2 
	479.2,362.2 480.4,362.2 489,362.2 511.5,362.2 512.3,362.2 518.5,362.2 518.5,335.4 539.1,335.4 "/>
<path class="st7" d="M440,128.6"/>
<g>
	<polygon class="st7" points="592.1,188.7 592.8,188.7 592.1,175.3 591.4,175.5 589.7,175.5 588.9,175.6 589.6,188.8 	"/>
	<polygon class="st7" points="598.1,167.3 598.7,166.6 588.6,158.1 588.1,158.5 587.1,159.8 586.5,160.4 596.5,169.2 	"/>
	<polygon class="st7" points="592.6,128.1 593.3,128.3 593.9,115 593.1,115 591.5,114.9 590.7,114.8 590.2,128.1 	"/>
	<polygon class="st7" points="593,139.4 593.7,139.3 592.1,126.1 591.4,126.3 589.6,126.4 588.9,126.5 590.6,139.6 	"/>
	<polygon class="st7" points="587.8,149 588.4,149.5 596.1,138.7 595.5,138.2 594.3,137.3 593.7,136.8 585.8,147.5 	"/>
	<polygon class="st7" points="590.7,159.6 591.5,159.7 592.1,146.3 591.4,146.5 589.6,146.3 588.9,146.2 588.2,159.5 	"/>
	<polygon class="st7" points="588.6,178.4 589.3,178.7 595.4,167 594.7,166.6 593.3,165.8 592.6,165.5 586.5,177.2 	"/>
</g>
<g>
	<g>
		<path class="st7" d="M184.4,19.2h-26.8v66.6v20.8H381c22.8,2.3,20.8,12.2,48.8,12.2c63.3,0,82.1-86.9,86.8-118.7H196
			C191.7,5.2,187.8,11.8,184.4,19.2z"/>
		<path class="st7" d="M275.5,335.3V309h34.9v26.3H275.5L275.5,335.3z"/>
		<path class="st7" d="M170,322.8h-37v-55.7h37V322.8z"/>
	</g>
	<g>
		<path class="st12" d="M142.9,289.4c0.2,0,0.2,0,0.5,0c0.8,0,1.4-0.2,1.9-0.6c0.3-0.3,0.5-0.8,0.5-1.3s-0.2-1-0.6-1.3
			s-0.9-0.5-1.7-0.5s-1.3,0.1-1.7,0.2v5.6h1.2L142.9,289.4L142.9,289.4z M142.9,286.7c0.1,0,0.2-0.1,0.5-0.1c0.6,0,1,0.3,1,0.9
			c0,0.5-0.4,0.9-1.1,0.9c-0.2,0-0.3,0-0.5,0L142.9,286.7L142.9,286.7z"/>
		<path class="st12" d="M140.5,293.2h6.3c0.8,0,1.5-0.6,1.5-1.5v-6.3c0-0.8-0.6-1.5-1.5-1.5h-6.3c-0.8,0-1.5,0.6-1.5,1.5v6.3
			C139.1,292.6,139.7,293.2,140.5,293.2z M140.2,285.5c0-0.2,0.2-0.4,0.4-0.4h6.1c0.2,0,0.4,0.2,0.4,0.4v6.1c0,0.2-0.2,0.4-0.4,0.4
			h-6.1c-0.2,0-0.4-0.2-0.4-0.4V285.5z"/>
		<path class="st12" d="M144.9,300.8c-1.4,0-2.6,1.2-2.6,2.6s1.2,2.6,2.6,2.6s2.6-1.2,2.6-2.6C147.5,301.9,146.3,300.8,144.9,300.8z
			 M144.9,304c-0.4,0-0.8-0.3-0.8-0.8c0-0.4,0.3-0.8,0.8-0.8c0.4,0,0.8,0.3,0.8,0.8S145.4,304,144.9,304z"/>
		<path class="st12" d="M163.4,301.2l-0.4-3.3c-0.1-0.6-0.6-1.1-1.3-1.1l-0.9,0.1l-2.8-2.6c-0.2-0.2-0.6-0.4-1-0.4h-5.7
			c-1.3,0-2.6,0.5-3.5,1.2l-3.2,2.6l-4.3,1.1c-0.5,0.2-0.9,0.6-0.9,1.2v1.2c-0.2,0-0.3,0.2-0.3,0.3v1.6c0,0.2,0.2,0.4,0.4,0.4h2.4
			c0-0.1,0-0.2,0-0.3c0-1.8,1.4-3.2,3.2-3.2s3.2,1.4,3.2,3.2c0,0.1,0,0.2,0,0.3h6.7c0-0.1,0-0.2,0-0.3c0-1.8,1.4-3.2,3.2-3.2
			s3.2,1.4,3.2,3.2c0,0.1,0,0.2,0,0.3h2.2c0.2,0,0.4-0.2,0.4-0.4v-1.6C163.8,301.4,163.6,301.2,163.4,301.2L163.4,301.2z
			 M154.9,297.1l-8,0.4l1.6-1.2c0.9-0.7,1.9-1,2.9-1h3.5V297.1z M156.2,297v-1.8h0.5c0.2,0,0.4,0.1,0.5,0.2l1.6,1.5L156.2,297z"/>
		<path class="st12" d="M158,300.8c-1.4,0-2.6,1.2-2.6,2.6s1.2,2.6,2.6,2.6s2.6-1.2,2.6-2.6C160.4,301.9,159.4,300.8,158,300.8z
			 M158,304c-0.4,0-0.8-0.3-0.8-0.8c0-0.4,0.3-0.8,0.8-0.8c0.4,0,0.8,0.3,0.8,0.8C158.7,303.7,158.4,304,158,304z"/>
	</g>
	<g>
		<path class="st12" d="M419.6,55.1c0.2,0,0.2,0,0.5,0c0.8,0,1.4-0.2,1.9-0.6c0.3-0.3,0.5-0.8,0.5-1.3s-0.2-1-0.6-1.3
			s-0.9-0.5-1.7-0.5s-1.3,0.1-1.7,0.2v5.6h1.2L419.6,55.1L419.6,55.1z M419.6,52.4c0.1,0,0.2-0.1,0.5-0.1c0.6,0,1,0.3,1,0.9
			c0,0.5-0.4,0.9-1.1,0.9c-0.2,0-0.3,0-0.5,0L419.6,52.4L419.6,52.4z"/>
		<path class="st12" d="M417.2,58.9h6.3c0.8,0,1.5-0.6,1.5-1.5v-6.3c0-0.8-0.6-1.5-1.5-1.5h-6.3c-0.8,0-1.5,0.6-1.5,1.5v6.3
			C415.8,58.3,416.4,58.9,417.2,58.9z M416.9,51.2c0-0.2,0.2-0.4,0.4-0.4h6.1c0.2,0,0.4,0.2,0.4,0.4v6.1c0,0.2-0.2,0.4-0.4,0.4h-6.1
			c-0.2,0-0.4-0.2-0.4-0.4V51.2z"/>
		<path class="st12" d="M421.6,66.5c-1.4,0-2.6,1.2-2.6,2.6s1.2,2.6,2.6,2.6s2.6-1.2,2.6-2.6C424.2,67.6,423,66.5,421.6,66.5z
			 M421.6,69.7c-0.4,0-0.8-0.3-0.8-0.8c0-0.4,0.3-0.8,0.8-0.8c0.4,0,0.8,0.3,0.8,0.8S422.1,69.7,421.6,69.7z"/>
		<path class="st12" d="M440.1,66.9l-0.4-3.3c-0.1-0.6-0.6-1.1-1.3-1.1l-0.9,0.1l-2.8-2.6c-0.2-0.2-0.6-0.4-1-0.4H428
			c-1.3,0-2.6,0.5-3.5,1.2l-3.2,2.6l-4.3,1.1c-0.5,0.2-0.9,0.6-0.9,1.2v1.2c-0.2,0-0.3,0.2-0.3,0.3v1.6c0,0.2,0.2,0.4,0.4,0.4h2.4
			c0-0.1,0-0.2,0-0.3c0-1.8,1.4-3.2,3.2-3.2s3.2,1.4,3.2,3.2c0,0.1,0,0.2,0,0.3h6.7c0-0.1,0-0.2,0-0.3c0-1.8,1.4-3.2,3.2-3.2
			s3.2,1.4,3.2,3.2c0,0.1,0,0.2,0,0.3h2.2c0.2,0,0.4-0.2,0.4-0.4v-1.6C440.5,67.1,440.3,66.9,440.1,66.9L440.1,66.9z M431.6,62.8
			l-8,0.4l1.6-1.2c0.9-0.7,1.9-1,2.9-1h3.5V62.8z M432.9,62.7v-1.8h0.5c0.2,0,0.4,0.1,0.5,0.2l1.6,1.5L432.9,62.7z"/>
		<path class="st12" d="M434.7,66.5c-1.4,0-2.6,1.2-2.6,2.6s1.2,2.6,2.6,2.6s2.6-1.2,2.6-2.6C437.1,67.6,436.1,66.5,434.7,66.5z
			 M434.7,69.7c-0.4,0-0.8-0.3-0.8-0.8c0-0.4,0.3-0.8,0.8-0.8c0.4,0,0.8,0.3,0.8,0.8C435.4,69.4,435.1,69.7,434.7,69.7z"/>
	</g>
	<g>
		<path class="st12" d="M182.6,55.1c0.2,0,0.2,0,0.5,0c0.8,0,1.4-0.2,1.9-0.6c0.3-0.3,0.5-0.8,0.5-1.3s-0.2-1-0.6-1.3
			s-0.9-0.5-1.7-0.5s-1.3,0.1-1.7,0.2v5.6h1.2L182.6,55.1L182.6,55.1z M182.6,52.4c0.1,0,0.2-0.1,0.5-0.1c0.6,0,1,0.3,1,0.9
			c0,0.5-0.4,0.9-1.1,0.9c-0.2,0-0.3,0-0.5,0L182.6,52.4L182.6,52.4z"/>
		<path class="st12" d="M180.2,58.9h6.3c0.8,0,1.5-0.6,1.5-1.5v-6.3c0-0.8-0.6-1.5-1.5-1.5h-6.3c-0.8,0-1.5,0.6-1.5,1.5v6.3
			C178.8,58.3,179.4,58.9,180.2,58.9z M179.9,51.2c0-0.2,0.2-0.4,0.4-0.4h6.1c0.2,0,0.4,0.2,0.4,0.4v6.1c0,0.2-0.2,0.4-0.4,0.4h-6.1
			c-0.2,0-0.4-0.2-0.4-0.4V51.2z"/>
		<path class="st12" d="M184.6,66.5c-1.4,0-2.6,1.2-2.6,2.6s1.2,2.6,2.6,2.6s2.6-1.2,2.6-2.6C187.2,67.6,186,66.5,184.6,66.5z
			 M184.6,69.7c-0.4,0-0.8-0.3-0.8-0.8c0-0.4,0.3-0.8,0.8-0.8c0.4,0,0.8,0.3,0.8,0.8S185.1,69.7,184.6,69.7z"/>
		<path class="st12" d="M203.1,66.9l-0.4-3.3c-0.1-0.6-0.6-1.1-1.3-1.1l-0.9,0.1l-2.8-2.6c-0.2-0.2-0.6-0.4-1-0.4H191
			c-1.3,0-2.6,0.5-3.5,1.2l-3.2,2.6l-4.3,1.1c-0.5,0.2-0.9,0.6-0.9,1.2v1.2c-0.2,0-0.3,0.2-0.3,0.3v1.6c0,0.2,0.2,0.4,0.4,0.4h2.4
			c0-0.1,0-0.2,0-0.3c0-1.8,1.4-3.2,3.2-3.2s3.2,1.4,3.2,3.2c0,0.1,0,0.2,0,0.3h6.7c0-0.1,0-0.2,0-0.3c0-1.8,1.4-3.2,3.2-3.2
			s3.2,1.4,3.2,3.2c0,0.1,0,0.2,0,0.3h2.2c0.2,0,0.4-0.2,0.4-0.4v-1.6C203.5,67.1,203.3,66.9,203.1,66.9L203.1,66.9z M194.6,62.8
			l-8,0.4l1.6-1.2c0.9-0.7,1.9-1,2.9-1h3.5V62.8z M195.9,62.7v-1.8h0.5c0.2,0,0.4,0.1,0.5,0.2l1.6,1.5L195.9,62.7z"/>
		<path class="st12" d="M197.7,66.5c-1.4,0-2.6,1.2-2.6,2.6s1.2,2.6,2.6,2.6s2.6-1.2,2.6-2.6C200.1,67.6,199.1,66.5,197.7,66.5z
			 M197.7,69.7c-0.4,0-0.8-0.3-0.8-0.8c0-0.4,0.3-0.8,0.8-0.8c0.4,0,0.8,0.3,0.8,0.8C198.4,69.4,198.1,69.7,197.7,69.7z"/>
	</g>
	<path class="st12" d="M301,320.9c-0.3,0-0.6,0.1-1,0.1l-2.6-5.7c-0.2-0.3-0.5-0.5-0.8-0.5H295c-0.5,0-0.9,0.4-0.9,0.9
		s0.4,0.9,0.9,0.9h1.1l0.7,1.6h-7.1l-0.5-1.1h0.4c0.5,0,0.9-0.4,0.9-0.9s-0.4-0.9-0.9-0.9h-3.1c-0.5,0-0.9,0.4-0.9,0.9
		s0.4,0.9,0.9,0.9h0.9l0.9,1.8l-1.6,2.4c-0.5-0.2-1.1-0.3-1.7-0.3c-2.4,0-4.3,1.9-4.3,4.3s1.9,4.3,4.3,4.3c2.1,0,3.9-1.5,4.3-3.5
		h0.7c0.4,1,1.5,1.6,2.6,1.4c1.2-0.2,2-1.5,1.8-2.7c0-0.2-0.1-0.3-0.2-0.5l3.8-3.9l0.6,1.3c-1.1,0.8-1.8,2.1-1.8,3.5
		c0,2.4,1.9,4.3,4.3,4.3s4.3-1.9,4.3-4.3C305.3,322.8,303.4,320.9,301,320.9L301,320.9z M290.3,323.6c-0.2,0.2-0.4,0.5-0.5,0.8h-0.7
		c-0.2-0.9-0.5-1.6-1.2-2.2l1-1.6L290.3,323.6L290.3,323.6z M286.9,323.7c0.2,0.2,0.3,0.5,0.4,0.7h-0.9L286.9,323.7z M284.8,327.9
		c-1.5,0-2.6-1.2-2.6-2.6c0-1.5,1.2-2.6,2.6-2.6c0.2,0,0.5,0.1,0.7,0.1l-1.4,2c-0.2,0.2-0.2,0.6-0.1,0.9c0.2,0.3,0.5,0.5,0.8,0.5
		h2.5C286.9,327.1,286,327.9,284.8,327.9L284.8,327.9z M292.8,323.1c-0.3-0.2-0.6-0.2-1-0.2l-1.4-3.1h5.7L292.8,323.1z M301,327.9
		c-1.5,0-2.6-1.2-2.6-2.6c0-0.8,0.3-1.4,0.9-1.9l1,2.2c0.2,0.3,0.5,0.5,0.8,0.5c0.2,0,0.2,0,0.3-0.1c0.5-0.2,0.6-0.7,0.4-1.1l-1-2.2
		c0.1,0,0.2,0,0.2,0c1.5,0,2.6,1.2,2.6,2.6C303.6,326.7,302.4,327.9,301,327.9z"/>
</g>
<circle class="st13" cx="422.6" cy="383.4" r="12.2"/>
<g>
	<g>
		<circle class="st13" cx="221.7" cy="368.4" r="18"/>
		<circle class="st13" cx="516.6" cy="89.5" r="18"/>
		<circle class="st13" cx="743.2" cy="106.6" r="18"/>
		<circle class="st13" cx="543.6" cy="432.6" r="12.2"/>
		<circle class="st13" cx="370.6" cy="591.8" r="12.2"/>
		<circle class="st13" cx="275.5" cy="591.8" r="12.2"/>
		<circle class="st13" cx="173.2" cy="591.8" r="12.2"/>
		<circle class="st13" cx="114.4" cy="591.8" r="12.2"/>
		<circle class="st13" cx="427.7" cy="591.8" r="12.2"/>
		<circle class="st13" cx="434.8" cy="432.6" r="12.2"/>
		<circle class="st13" cx="367.6" cy="153.2" r="12.2"/>
		<circle class="st13" cx="214.2" cy="229.1" r="12.2"/>
		<circle class="st13" cx="150.9" cy="347.1" r="15.1"/>
		<circle class="st13" cx="590.5" cy="241.3" r="12.2"/>
		<circle class="st13" cx="661.6" cy="35.4" r="12.2"/>
		<circle class="st13" cx="632.5" cy="94.3" r="12.2"/>
		<circle class="st13" cx="77.3" cy="25.7" r="22.9"/>
		<circle class="st13" cx="577.9" cy="36.4" r="32"/>
		<path class="st13" d="M791,471.7c-67.3,4.5-120.6,65.1-121.1,139.3H791V471.7z"/>
	</g>
	<path class="st12" d="M88.5,33H84v-1.7h0.9c0.3,0,0.5-0.2,0.5-0.5s-0.2-0.5-0.5-0.5H82c-0.3,0-0.5,0.2-0.5,0.5s0.2,0.5,0.5,0.5h0.9
		V33h-9v-3.9h4.5c0.2,0,0.5-0.2,0.5-0.3c0.1-0.2,0.1-0.5-0.1-0.6l-2.9-3.1h1.3c0.2,0,0.5-0.2,0.5-0.3c0.1-0.2,0.1-0.5-0.1-0.6
		L75,21.3h1.3c0.2,0,0.5-0.2,0.5-0.3c0.1-0.2,0.1-0.5-0.1-0.6l-3.6-3.9c-0.2-0.2-0.6-0.2-0.9,0l-3.6,3.9c-0.2,0.2-0.2,0.4-0.1,0.6
		s0.3,0.3,0.5,0.3h1.3l-2.6,2.9c-0.2,0.2-0.2,0.4-0.1,0.6s0.3,0.3,0.5,0.3h1.3l-2.9,3.1c-0.2,0.2-0.2,0.4-0.1,0.6s0.3,0.3,0.5,0.3
		h4.5V33h-5.7c-0.6,0-1.2,0.5-1.2,1.2c0,0.6,0.5,1.2,1.2,1.2h23c0.6,0,1.2-0.5,1.2-1.2C89.7,33.5,89.2,33,88.5,33L88.5,33z"/>
	<path class="st12" d="M589.1,43.7h-4.5V42h0.9c0.3,0,0.5-0.2,0.5-0.5s-0.2-0.5-0.5-0.5h-2.9c-0.3,0-0.5,0.2-0.5,0.5
		s0.2,0.5,0.5,0.5h0.9v1.7h-9v-3.9h4.5c0.2,0,0.5-0.2,0.5-0.3c0.1-0.2,0.1-0.5-0.1-0.6l-2.9-3.1h1.3c0.2,0,0.5-0.2,0.5-0.3
		c0.1-0.2,0.1-0.5-0.1-0.6l-2.6-2.9h1.3c0.2,0,0.5-0.2,0.5-0.3c0.1-0.2,0.1-0.5-0.1-0.6l-3.6-3.9c-0.2-0.2-0.6-0.2-0.9,0l-3.6,3.9
		c-0.2,0.2-0.2,0.4-0.1,0.6c0.1,0.2,0.3,0.3,0.5,0.3h1.3l-2.6,2.9c-0.2,0.2-0.2,0.4-0.1,0.6c0.1,0.2,0.3,0.3,0.5,0.3h1.3l-2.9,3.1
		c-0.2,0.2-0.2,0.4-0.1,0.6c0.1,0.2,0.3,0.3,0.5,0.3h4.5v3.9h-5.7c-0.6,0-1.2,0.5-1.2,1.2c0,0.6,0.5,1.2,1.2,1.2h23
		c0.6,0,1.2-0.5,1.2-1.2C590.3,44.2,589.8,43.7,589.1,43.7L589.1,43.7z"/>
</g>
<g>
	<path class="st7" d="M550,483v-11.2h-40c0-14.5-11.7-26.2-26.2-26.2s-26.2,11.7-26.2,26.2h-40V517v14h48.7c1.8,8,9,14,17.5,14
		s15.7-6,17.5-14H550v-14.1V513c8.3,0,15-6.7,15-15S558.3,483,550,483z"/>
	<polygon class="st7" points="325.3,521.8 325.3,547.8 375.8,547.8 375.8,521.8 375.8,464.9 375.8,438.8 325.3,438.8 	"/>
	<polygon class="st7" points="146,149.9 146,159.2 204.5,159.2 204.5,149.9 204.5,129.5 204.5,120.2 146,120.2 	"/>
	<path class="st7" d="M72.7,225.1c0-8.3-6.8-15.1-15.1-15.1s-15.1,6.8-15.1,15.1h-4.7v18.1h-8.6v7v15.3v7h8.6v2.5v15.6h39.5V275
		v-34.2v-15.7H72.7L72.7,225.1z"/>
	<path class="st7" d="M91,339.8v-5.3H34.7v7.3h-5.5v5.9v12.8v5.8h5.5v7.3H91v-5.3c7.9,0,14.2-6.4,14.2-14.2S98.8,339.8,91,339.8z"/>
	<path class="st7" d="M91,144.5v-5.3H34.7v7.3h-5.5v5.9v12.8v5.8h5.5v7.3H91V173c7.9,0,14.2-6.4,14.2-14.2S98.8,144.5,91,144.5z"/>
	<polygon class="st7" points="82.1,476 82.1,442.9 82.1,415 42.1,415 42.1,433.7 29.2,433.7 29.2,441.9 29.2,444.5 42.1,444.5 
		42.1,503.8 42.1,508.5 29.2,508.5 29.2,526 29.2,531.5 45.1,531.5 55,531.5 131.6,531.5 131.6,518.3 131.6,489.3 131.6,476 	"/>
	<polygon class="st7" points="258.8,482.4 258.8,475.8 258.8,469.7 242,469.7 242,463.6 242,449 202,449 202,463.6 202,469.7 
		185.2,469.7 185.2,482.4 159.8,482.4 159.8,517.5 159.8,528.5 202,528.5 202,529.2 202,539 242,539 242,529.2 242,528.5 
		284.2,528.5 284.2,517.5 284.2,493.5 284.2,482.4 	"/>
	<polygon class="st7" points="791,261.7 787.9,261.3 790.2,242.5 727.6,234.6 708,232.1 701.4,284.7 703.4,285 702.5,292.4 701,292 
		680.2,368 673.8,391.7 722.5,405 729,381.3 732.8,367 744.6,368.5 760.6,370.5 770.3,293.4 783.6,295.1 786,275.9 789.2,276.3 	"/>
</g>
<polygon class="st14" points="435.2,314.1 367.6,314.1 367.6,362.2 388.8,362.2 388.8,374.1 406.6,374.1 406.6,362.2 435.2,362.2 
	"/>
<rect x="388.8" y="371.9" class="st15" width="17.8" height="1.1"/>
<rect x="388.8" y="365.3" class="st15" width="17.8" height="1.1"/>
<rect x="388.8" y="363.1" class="st15" width="17.8" height="1.1"/>
<rect x="383.3" y="344.7" class="st15" width="6.1" height="4.8"/>
<rect x="422.1" y="344.7" class="st15" width="6.1" height="5.7"/>
<rect x="403.7" y="330.2" class="st15" width="3.9" height="5.1"/>
<g>
	<path class="st4" d="M783.1,444.1c-0.9,0-1.8,0.2-2.6,0.5c-36,1-69.6,17.7-95.1,47.1c-25.2,29.2-39.5,67.8-40.2,108.9
		c-0.3,0.8-0.4,1.7-0.4,2.6c0,4.4,3.5,7.9,7.9,7.9s7.9-3.5,7.9-7.9c0-0.8-0.1-1.6-0.4-2.4c1.5-76.9,54.7-139.1,120.6-141.2
		c0.7,0.2,1.5,0.3,2.3,0.3c4.4,0,7.9-3.5,7.9-7.9S787.5,444.1,783.1,444.1z"/>
	<path class="st4" d="M687.9,151.2c7.2-3.3,15.4-3.2,23.6,0.5l68,31.7l0,0c1,0.5,2.2,0.7,3.4,0.7c4.5,0,8.2-3.7,8.2-8.2
		c0-3-1.6-5.6-4-7l0,0l0,0c-0.6-0.3-1.2-0.6-1.8-0.8L717.6,138c-8.5-3.8-15-10.7-18.3-19.4c-2.5-6.6-2.6-14.6-0.9-21.8
		c12.1-26.4,26.4-54,43.6-83.9c0.7-1.2,1.1-2.6,1.1-4c0.2-4.5-3.4-8-7.7-8c-2.8,0-5.3,1.5-6.7,3.8c0,0.1-0.1,0.1-0.1,0.2
		c-0.1,0.1-0.1,0.2-0.2,0.3C635.6,167,625.7,259.9,603.7,478.5c-3.6,35.9-8.1,78.4-12.9,123.1c-0.1,0.5-0.2,1.1-0.2,1.7
		c0,4.3,3.5,7.9,7.9,7.9c4.1,0,7.4-3.1,7.8-7.1c4.9-45.4,8.7-87.6,12.3-124.1c13.9-138.9,23.2-226.3,52.1-313.1
		C675,159.6,681.7,154.1,687.9,151.2z M686,125.7c1.3,3.1,2.9,6.1,4.8,8.9c-3.2,0.6-6.2,1.6-9.3,3c-0.1,0.1-0.3,0.1-0.4,0.2
		C682.8,133.8,684.4,129.7,686,125.7z"/>
	<path class="st4" d="M720.5,13.1h1c0.8-1.3,0.3-2.7,0.3-4.2c0-4.3-3.5-7.9-7.9-7.9c-2.8,0-4.3,1.5-5.7,3.8
		c-0.1,0.2-1.2,0.3-1.3,0.5c-81,142-96.7,228.4-113.9,394.2H405.2v-25.4h-15v25.4h-83c-2.8-13.6-13.8-43.6-57.6-72.2
		c-41.8-27.3-65-72.6-100-141.1c-6.4-12.5-13-25.4-20.2-39.3V93.5h28.2v-15h-28.2v-67c0.3-0.8,0.4-1.6,0.4-2.5
		c0-4.4-3.5-7.9-7.9-7.9S114,4.6,114,9c0,0.9,0.1,1.7,0.4,2.5v78H92.9C59.4,45.4,24.3,15.8,15.5,8.7c-1.4-2.2-3.8-3.6-6.6-3.6
		C4.5,5.1,1,8.6,1,13c0,3.4,2.1,6.3,5.1,7.4C6.9,21.1,8,21.9,9.3,23v66.1c-0.1,0-0.3,0-0.4,0C4.5,89.1,1,92.6,1,97s3.5,7.9,7.9,7.9
		c0.1,0,0.3,0,0.4,0v289.4c-0.1,0-0.3,0-0.4,0c-4.4,0-7.9,3.5-7.9,7.9s3.5,7.9,7.9,7.9c0.1,0,0.3,0,0.4,0v147.3c-0.1,0-0.3,0-0.4,0
		c-4.4,0-7.9,3.5-7.9,7.9s3.5,7.9,7.9,7.9c0.1,0,0.3,0,0.4,0v27.4c-0.3,0.8-0.4,1.6-0.4,2.5c0,4.4,3.5,7.9,7.9,7.9s7.9-3.5,7.9-7.9
		c0-0.9-0.1-1.7-0.4-2.5v-27.8h113.4v27.8c-0.3,0.8-0.4,1.6-0.4,2.5c0,4.4,3.5,7.9,7.9,7.9s7.9-3.5,7.9-7.9c0-0.9-0.1-1.7-0.4-2.5
		v-27.8h140.4v27.8c-0.3,0.8-0.4,1.6-0.4,2.5c0,4.4,3.5,7.9,7.9,7.9s7.9-3.5,7.9-7.9c0-0.9-0.1-1.7-0.4-2.5v-27.8h82.1v27.8
		c-0.3,0.8-0.4,1.6-0.4,2.5c0,4.4,3.5,7.9,7.9,7.9s7.9-3.5,7.9-7.9c0-0.9-0.1-1.7-0.4-2.5v-27.8h170.1c-1,9.2-2,18.6-3,28.1
		c-0.2,0.7-0.3,1.5-0.3,2.2c0,0.2,0,0.4,0,0.5s0,0.2,0,0.3c0.4,4,3.8,7.1,7.8,7.1c4.1,0,7.4-3.1,7.8-7.1
		c4.9-45.8,8.7-87.4,12.3-124.2C621.8,261.4,629,173.5,720.5,13.1z M241.4,339.9c36.3,23.7,47.1,47.8,50.3,59.6h-118
		c-6.3,0-12.4-1.4-17.8-3.8c31.4-27.1,48-52.1,61.8-74.7C224.9,328,232.8,334.2,241.4,339.9z M114.4,104.5v16.1
		c-3.5-5.5-7-10.9-10.6-16.1H114.4z M24.3,36.4c13.2,12.3,31.3,30.5,49.4,53.1H24.3V36.4z M24.3,104.5h61
		c10.4,14.1,20.4,29.6,29.1,46.1v204.5c0,15.2,5.7,29.1,15.1,39.6H24.3V104.5z M137.7,449.3v108.5H24.3V409.7h125.8
		C137.7,419.5,137.7,435,137.7,449.3z M143,387c-8.4-8.1-13.6-19.4-13.6-31.9V179.5c2.3,4.6,4.6,9,6.9,13.5
		c25.7,50.3,45.2,88.4,70.6,116.9C192.2,334,176.3,359,143,387z M293.1,557.8H152.7V449.3c0-10.6,0-19.7,4.3-25.4
		c4.8-6.3,16.2-9.4,34.7-9.4h101.4V557.8z M390.2,557.8h-82.1V414.5h82.1V557.8z M585.1,478.3c-2.4,24.1-5.2,51-8.2,79.5H405.2
		V414.5h186.3C589.4,434.5,587.3,455.7,585.1,478.3z"/>
	<path class="st4" d="M351.8,189.6c30-2.2,52.6-17.3,52.7-36.3l0,0l0,0l0,0l0,0c-0.1-19-22.7-34.1-52.7-36.3v-6
		c0-4.4-3.4-7.9-7.5-7.9s-7.5,3.5-7.5,7.9v90.4h15V189.6z M351.8,131.9c22.5,1.9,37.6,12.1,37.7,21.3c-0.1,9.3-15.2,19.4-37.7,21.3
		V131.9z"/>
	<path class="st4" d="M435.2,123.3c0-4.4-3.4-7.9-7.5-7.9s-7.5,3.5-7.5,7.9V224h15V123.3z"/>
	<path class="st4" d="M318.1,246c0.1,0,0.2,0,0.3,0v-15c-0.1,0-0.2,0-0.3,0c-31.7,0-53.7-6.6-67.3-20.2
		c-21.5-21.5-21.5-59.9-21.5-104.3h-15c0,47.8,0,89,25.9,114.9C256.7,238,282.2,246,318.1,246z"/>
</g>
<rect x="512.4" y="317.6" class="st15" width="1.1" height="17.8"/>
<rect x="519.1" y="317.6" class="st15" width="1.1" height="17.8"/>
<rect x="521.3" y="317.6" class="st15" width="1.1" height="17.8"/>
<rect x="516.9" y="317.6" class="st15" width="1.1" height="17.8"/>
<rect x="514.6" y="317.6" class="st15" width="1.1" height="17.8"/>
<rect x="528" y="317.6" class="st15" width="1.1" height="17.8"/>
<rect x="530.2" y="317.6" class="st15" width="1.1" height="17.8"/>
<rect x="525.8" y="317.6" class="st15" width="1.1" height="17.8"/>
<rect x="523.5" y="317.6" class="st15" width="1.1" height="17.8"/>
<rect x="536.9" y="317.6" class="st15" width="1.1" height="17.8"/>
<rect x="534.7" y="317.6" class="st15" width="1.1" height="17.8"/>
<rect x="532.4" y="317.6" class="st15" width="1.1" height="17.8"/>
</svg>
