<?xml version="1.0" encoding="utf-8"?>
<!-- Generator: Adobe Illustrator 14.0.0, SVG Export Plug-In . SVG Version: 6.00 Build 43363)  -->
<!DOCTYPE svg PUBLIC "-//W3C//DTD SVG 1.1//EN" "http://www.w3.org/Graphics/SVG/1.1/DTD/svg11.dtd">
<svg version="1.1" id="Layer_4" xmlns="http://www.w3.org/2000/svg" xmlns:xlink="http://www.w3.org/1999/xlink" x="0px" y="0px"
	 width="792px" height="612px" viewBox="0 0 792 612" enable-background="new 0 0 792 612" xml:space="preserve">
<g>
	<polygon fill="#DCDBDB" points="774.707,440.062 45.872,440.062 45.872,422.432 774.707,422.432 774.707,440.062 	"/>
	<polygon fill="#DCDBDB" points="589.927,104.393 202.57,104.393 202.57,86.763 589.927,86.763 589.927,104.393 	"/>
	<polygon fill="#DCDBDB" points="189.93,596.836 189.93,130.55 207.56,130.55 207.56,596.836 189.93,596.836 	"/>
	<polygon fill="#DCDBDB" points="584.442,596.836 584.442,130.55 602.071,130.55 602.071,596.836 584.442,596.836 	"/>
	<polygon fill="#DCDBDB" points="587.861,200.472 362.836,13.221 376.195,4.977 601.218,192.227 587.861,200.472 	"/>
	<path fill="#DCDBDB" d="M197.697,588.371l-0.024-0.261c-0.14,0.01-14.144,1.069-23.317-7.39
		c-5.729-5.283-8.635-13.557-8.635-24.594c0-23.402-5.811-39.28-17.76-48.541c-11.187-8.673-25.392-9.867-39.079-9.867H46.696
		l-0.48,0.014c-0.97,0.055-16.712,1.074-36.453,9.728c0.748,5.977,2.086,11.88,4.17,17.464c17.122-8.044,31.333-9.433,33.068-9.575
		h61.883c23.077,0,39.413,2.923,39.413,40.778c0,16.202,4.82,28.861,14.326,37.625c11.558,10.658,26.635,12.004,33.285,12.028V606
		h586.987v-17.629H197.697z"/>
	<path fill="#DCDBDB" d="M420.537,428.751h-49.072v40.656c0,0.014-0.001,0.027-0.001,0.041V604.5h49.073v-69.769
		c0-0.007,0.001-0.015,0.001-0.021V428.751z"/>
	<rect x="371.465" y="511.272" fill="#EEEEEE" width="49.072" height="18.135"/>
	<rect x="371.465" y="548.52" fill="#EEEEEE" width="49.072" height="18.134"/>
	<path fill="#DCDBDB" d="M91.209,69.417c-4.93-2.295-25.889-12.215-52.131-26.946c-0.788-7.572-7.187-13.476-14.967-13.476
		c-8.313,0-15.052,6.738-15.052,15.05c0,8.312,6.738,15.051,15.052,15.051c2.19,0,4.266-0.479,6.143-1.32
		C60.366,74.705,83.51,85.291,85.007,85.972l1.124,0.511l115.218,17.251l2.61-17.436L91.209,69.417z"/>
	<path fill="#DCDBDB" d="M771.435,65.477c-6.632,0-12.25,4.294-14.255,10.25c-36.918,10.605-67.914,11.033-68.465,11.036h-99.788
		v17.63h99.828c1.164-0.006,28.918-0.249,64.14-9.216c3.224-0.82,6.387-1.705,9.521-2.622c2.516,1.889,5.632,3.022,9.02,3.022
		c8.313,0,15.051-6.739,15.051-15.051C786.485,72.214,779.747,65.477,771.435,65.477z"/>
	<circle fill="#DCDBDB" cx="774.707" cy="431.246" r="15.051"/>
	<g>
		<circle fill="#DCDBDB" cx="775.949" cy="595.836" r="15.051"/>
		<circle fill="#DCDBDB" cx="19.758" cy="513.625" r="15.051"/>
	</g>
	<path fill="#DCDBDB" d="M200.702,204.302H29.109c-2.76-3.201-6.836-5.236-11.395-5.236c-8.313,0-15.051,6.738-15.051,15.051
		c0,8.055,6.333,14.613,14.289,15.012c45.801,43.099,91.478,85.554,98.122,89.781c9.888,6.29,16.202,9.79,19.586,11.549
		c-13.64,13.947-63.748,62.593-109.125,106.408c-0.47-0.045-0.945-0.072-1.426-0.072c-8.313,0-15.051,6.738-15.051,15.051
		s6.738,15.051,15.051,15.051s15.051-6.738,15.051-15.051c0-1.589-0.25-3.118-0.706-4.555
		c42.033-40.594,104.755-101.377,110.321-107.997c5.162-6.139,9.988-6.711,10.54-6.757h41.386v-17.629h-41.517h-17.246
		c-2.422-1.218-8.623-4.514-19.523-11.447c-5.144-3.288-43.45-38.758-88.956-81.529h167.242V204.302z"/>
	<path fill="#DCDBDB" d="M771.486,237.98c10.782-0.028,19.514-8.774,19.514-19.563c0-10.806-8.759-19.564-19.564-19.564
		c-5.253,0-10.011,2.081-13.525,5.449H593.258v17.63h158.944c0.426,2.344,1.271,4.535,2.453,6.508
		c-40.898,26.628-83.538,54.446-99.285,64.901c-8.21,5.453-22.667,15.979-28.013,19.891h-38.845v17.631h11.058v1.682h40.333
		c6.266,3.335,30.254,16.065,39.543,20.481c10.808,5.138,44.365,17.92,74.425,29.129c2.217,5.551,7.631,9.478,13.973,9.478
		c8.313,0,15.051-6.738,15.051-15.051s-6.738-15.051-15.051-15.051c-3.761,0-7.191,1.389-9.829,3.669
		c-29.73-11.088-62.68-23.633-72.959-28.519c-7.689-3.655-26.557-13.61-35.538-18.374c5.066-3.625,10.373-7.363,14.164-9.88
		C680.507,297.256,728.146,266.191,771.486,237.98z"/>
	<path fill="#DCDBDB" d="M602.071,130.668H584.23c0-27.812-18.97-54.27-53.414-74.5C494.957,35.107,447.078,23.508,396,23.508
		c-51.078,0-98.957,11.599-134.816,32.66c-34.444,20.23-53.414,46.688-53.414,74.5H189.93c0-34.386,20.108-66.402,60.545-90.152
		C289.497,17.599,341.179,4.977,396,4.977c54.822,0,106.503,12.622,145.525,35.54C581.961,64.267,602.071,96.283,602.071,130.668
		L602.071,130.668z"/>
	<rect x="371.463" y="474.026" fill="#EEEEEE" width="49.075" height="18.137"/>
</g>
<g>
	<g>
		<polygon fill="#BCBCBC" points="763.919,122.6 617.577,122.6 617.577,177.012 667.264,177.012 667.264,188.083 714.23,188.083 
			714.23,177.012 763.919,177.012 		"/>
		<polygon fill="#BCBCBC" points="174.424,122.6 28.081,122.6 28.081,177.012 77.771,177.012 77.771,188.083 124.736,188.083 
			124.736,177.012 174.424,177.012 		"/>
	</g>
	<polygon fill="#BCBCBC" points="782.894,451.846 615.978,451.846 615.978,476.233 615.978,508.815 615.978,580.256 
		704.716,580.256 704.716,508.815 782.894,508.815 	"/>
</g>
<g id="parking">
	<path fill="#BCBCBC" d="M179.826,302.588h-43.373v-70.146h43.373V302.588z"/>
	<path fill="#636363" d="M166.168,266.195c-0.311,0-0.62,0.078-1.008,0.078l-2.56-5.664c-0.155-0.309-0.466-0.464-0.776-0.464
		h-1.629c-0.465,0-0.852,0.388-0.852,0.853c0,0.465,0.387,0.854,0.852,0.854h1.087l0.698,1.551h-7.137l-0.466-1.085h0.387
		c0.467,0,0.854-0.389,0.854-0.854c0-0.465-0.388-0.854-0.854-0.854h-3.103c-0.465,0-0.854,0.389-0.854,0.854
		c0,0.465,0.389,0.854,0.854,0.854h0.854l0.854,1.785l-1.629,2.404c-0.543-0.233-1.086-0.311-1.707-0.311
		c-2.404,0-4.345,1.94-4.345,4.345c0,2.404,1.94,4.343,4.345,4.343c2.094,0,3.879-1.473,4.267-3.491h0.699
		c0.386,1.009,1.473,1.629,2.636,1.396c1.242-0.232,2.018-1.473,1.785-2.713c0-0.156-0.076-0.312-0.155-0.467l3.801-3.878
		l0.62,1.318c-1.085,0.776-1.783,2.095-1.783,3.492c0,2.404,1.939,4.343,4.344,4.343s4.344-1.939,4.344-4.343
		C170.514,268.135,168.573,266.195,166.168,266.195L166.168,266.195z M155.464,268.911c-0.232,0.232-0.388,0.465-0.465,0.776H154.3
		c-0.153-0.854-0.541-1.629-1.163-2.173l1.01-1.551L155.464,268.911L155.464,268.911z M152.127,268.988
		c0.157,0.232,0.311,0.466,0.389,0.699h-0.854L152.127,268.988z M150.033,273.178c-1.472,0-2.637-1.165-2.637-2.637
		c0-1.475,1.165-2.638,2.637-2.638c0.232,0,0.467,0.078,0.699,0.078l-1.397,2.017c-0.155,0.232-0.232,0.621-0.077,0.853
		c0.156,0.311,0.466,0.466,0.775,0.466h2.482C152.127,272.401,151.197,273.178,150.033,273.178L150.033,273.178z M158.022,268.445
		c-0.31-0.155-0.618-0.155-1.007-0.155l-1.396-3.103h5.663C161.282,265.109,158.022,268.445,158.022,268.445z M166.168,273.178
		c-1.473,0-2.637-1.165-2.637-2.637c0-0.776,0.311-1.397,0.852-1.939l1.01,2.249c0.155,0.311,0.465,0.466,0.775,0.466
		c0.155,0,0.233,0,0.311-0.078c0.465-0.155,0.621-0.697,0.389-1.085l-1.01-2.25c0.078,0,0.156,0,0.234,0
		c1.474,0,2.636,1.164,2.636,2.638C168.806,272.013,167.643,273.178,166.168,273.178z"/>
	<path fill="#BCBCBC" d="M654.063,414.737h-43.372v-70.146h43.372V414.737z"/>
	<path fill="#636363" d="M640.406,378.345c-0.311,0-0.622,0.077-1.009,0.077l-2.561-5.663c-0.155-0.309-0.466-0.463-0.775-0.463
		h-1.628c-0.465,0-0.853,0.387-0.853,0.853c0,0.465,0.388,0.854,0.853,0.854h1.085l0.699,1.55h-7.138l-0.465-1.085h0.388
		c0.466,0,0.854-0.388,0.854-0.854c0-0.465-0.388-0.854-0.854-0.854h-3.104c-0.464,0-0.852,0.39-0.852,0.854
		c0,0.466,0.388,0.854,0.852,0.854h0.854l0.854,1.784l-1.631,2.405c-0.542-0.234-1.086-0.312-1.705-0.312
		c-2.405,0-4.345,1.94-4.345,4.346c0,2.402,1.939,4.344,4.345,4.344c2.094,0,3.877-1.475,4.264-3.493h0.701
		c0.387,1.009,1.474,1.631,2.636,1.396c1.242-0.233,2.018-1.473,1.784-2.714c0-0.156-0.075-0.311-0.155-0.466l3.803-3.879
		l0.62,1.319c-1.087,0.775-1.784,2.095-1.784,3.492c0,2.402,1.939,4.344,4.343,4.344c2.405,0,4.345-1.941,4.345-4.344
		C644.75,380.285,642.811,378.345,640.406,378.345L640.406,378.345z M629.702,381.059c-0.233,0.234-0.391,0.467-0.466,0.777h-0.701
		c-0.153-0.854-0.541-1.63-1.161-2.172l1.008-1.551L629.702,381.059L629.702,381.059z M626.365,381.139
		c0.157,0.23,0.31,0.464,0.388,0.697h-0.854L626.365,381.139z M624.271,385.327c-1.475,0-2.638-1.165-2.638-2.637
		c0-1.475,1.163-2.641,2.638-2.641c0.231,0,0.466,0.079,0.698,0.079l-1.397,2.018c-0.154,0.232-0.232,0.62-0.077,0.853
		c0.155,0.311,0.465,0.466,0.776,0.466h2.481C626.365,384.55,625.435,385.327,624.271,385.327L624.271,385.327z M632.261,380.594
		c-0.31-0.154-0.621-0.154-1.008-0.154l-1.396-3.103h5.662C635.519,377.26,632.261,380.594,632.261,380.594z M640.406,385.327
		c-1.475,0-2.639-1.165-2.639-2.637c0-0.777,0.312-1.397,0.854-1.939l1.008,2.248c0.154,0.311,0.466,0.466,0.776,0.466
		c0.154,0,0.233,0,0.309-0.078c0.465-0.155,0.622-0.696,0.39-1.086l-1.009-2.251c0.077,0,0.155,0,0.232,0
		c1.475,0,2.637,1.166,2.637,2.641C643.043,384.162,641.879,385.327,640.406,385.327z"/>
	<path fill="#BCBCBC" d="M274.066,181.201h-53.029v-63.55h53.029V181.201z"/>
	<g>
		<path fill="#636363" d="M239.018,143.88c0.156,0,0.234,0,0.467,0c0.775,0,1.395-0.154,1.861-0.621
			c0.311-0.309,0.543-0.775,0.543-1.318s-0.232-1.008-0.621-1.318c-0.389-0.31-0.93-0.465-1.705-0.465
			c-0.776,0-1.319,0.076-1.707,0.155v5.585h1.241L239.018,143.88L239.018,143.88z M239.018,141.242c0.079,0,0.234-0.078,0.545-0.078
			c0.619,0,1.008,0.312,1.008,0.854c0,0.543-0.389,0.932-1.086,0.932c-0.155,0-0.311,0-0.467,0V141.242L239.018,141.242z"/>
		<path fill="#636363" d="M236.615,147.68h6.283c0.775,0,1.473-0.619,1.473-1.473v-6.283c0-0.776-0.619-1.474-1.473-1.474h-6.283
			c-0.775,0-1.475,0.621-1.475,1.474v6.283C235.218,147.061,235.84,147.68,236.615,147.68z M236.304,140.001
			c0-0.232,0.155-0.387,0.388-0.387h6.128c0.233,0,0.388,0.154,0.388,0.387v6.129c0,0.232-0.154,0.387-0.388,0.387h-6.128
			c-0.232,0-0.388-0.155-0.388-0.387V140.001z"/>
		<path fill="#636363" d="M241.036,155.283c-1.396,0-2.56,1.163-2.56,2.561c0,1.395,1.164,2.559,2.56,2.559s2.56-1.164,2.56-2.559
			C243.596,156.369,242.432,155.283,241.036,155.283z M241.036,158.541c-0.389,0-0.776-0.309-0.776-0.776
			c0-0.388,0.311-0.774,0.776-0.774c0.388,0,0.776,0.31,0.776,0.774C241.813,158.231,241.502,158.541,241.036,158.541z"/>
		<path fill="#636363" d="M259.498,155.671l-0.389-3.335c-0.076-0.621-0.621-1.087-1.318-1.087l-0.932,0.079l-2.791-2.56
			c-0.234-0.232-0.62-0.388-1.009-0.388h-5.741c-1.318,0-2.56,0.464-3.49,1.24l-3.181,2.56l-4.267,1.087
			c-0.541,0.155-0.93,0.62-0.93,1.163v1.242c-0.156,0-0.311,0.155-0.311,0.31v1.629c0,0.233,0.154,0.388,0.389,0.388h2.403
			c0-0.078,0-0.233,0-0.311c0-1.784,1.396-3.18,3.182-3.18c1.784,0,3.179,1.396,3.179,3.18c0,0.077,0,0.233,0,0.311h6.672
			c0-0.078,0-0.233,0-0.311c0-1.784,1.396-3.18,3.181-3.18s3.181,1.396,3.181,3.18c0,0.077,0,0.233,0,0.311h2.248
			c0.233,0,0.389-0.155,0.389-0.388v-1.551C259.885,155.903,259.731,155.671,259.498,155.671L259.498,155.671z M250.965,151.56
			l-7.99,0.388l1.552-1.241c0.853-0.698,1.862-1.009,2.948-1.009h3.49V151.56z M252.283,151.482v-1.785h0.543
			c0.156,0,0.389,0.078,0.466,0.155l1.63,1.474C254.922,151.404,252.283,151.482,252.283,151.482z"/>
		<path fill="#636363" d="M254.068,155.283c-1.396,0-2.561,1.163-2.561,2.561c0,1.395,1.164,2.559,2.561,2.559
			c1.395,0,2.559-1.164,2.559-2.559C256.55,156.369,255.463,155.283,254.068,155.283z M254.068,158.541
			c-0.389,0-0.776-0.309-0.776-0.776c0-0.388,0.31-0.774,0.776-0.774c0.387,0,0.774,0.31,0.774,0.774
			C254.843,158.231,254.455,158.541,254.068,158.541z"/>
	</g>
</g>
<g>
	<circle fill="#A5D5A1" cx="241.51" cy="551.605" r="21.021"/>
	<circle fill="#A5D5A1" cx="241.509" cy="492.162" r="21.021"/>
	<circle fill="#A5D5A1" cx="153.402" cy="388.686" r="21.021"/>
	<circle fill="#A5D5A1" cx="757.94" cy="551.605" r="21.021"/>
	<circle fill="#A5D5A1" cx="362.835" cy="57.199" r="21.021"/>
	<circle fill="#A5D5A1" cx="313.967" cy="61.663" r="21.021"/>
	<circle fill="#A5D5A1" cx="179.827" cy="44.046" r="21.021"/>
	<circle fill="#A5D5A1" cx="622.239" cy="51.673" r="21.021"/>
	<circle fill="#A5D5A1" cx="688.768" cy="50.511" r="21.021"/>
	<circle fill="#A5D5A1" cx="747.101" cy="36.178" r="21.021"/>
	<circle fill="#A5D5A1" cx="460.06" cy="392.555" r="17.973"/>
	<circle fill="#A5D5A1" cx="331.939" cy="392.555" r="17.973"/>
	<circle fill="#A5D5A1" cx="27.052" cy="278.167" r="21.021"/>
	<circle fill="#A5D5A1" cx="531.587" cy="520.341" r="39.639"/>
	<circle fill="#A5D5A1" cx="636.998" cy="264.39" r="21.021"/>
	<path fill="#636363" d="M542.834,527.555h-4.499v-1.707h0.854c0.311,0,0.542-0.233,0.542-0.543c0-0.311-0.231-0.543-0.542-0.543
		h-2.871c-0.31,0-0.542,0.232-0.542,0.543c0,0.31,0.232,0.543,0.542,0.543h0.854v1.707h-8.999v-3.88h4.499
		c0.232,0,0.466-0.153,0.543-0.31c0.077-0.233,0.077-0.466-0.077-0.62l-2.871-3.103h1.32c0.23,0,0.466-0.155,0.543-0.312
		c0.076-0.231,0.076-0.465-0.077-0.619l-2.637-2.872h1.315c0.233,0,0.467-0.154,0.544-0.308c0.078-0.235,0.078-0.466-0.077-0.622
		l-3.646-3.878c-0.232-0.233-0.621-0.233-0.854,0l-3.645,3.878c-0.157,0.156-0.157,0.387-0.08,0.622
		c0.08,0.231,0.312,0.308,0.543,0.308h1.32l-2.638,2.872c-0.154,0.154-0.154,0.388-0.078,0.619c0.078,0.234,0.312,0.312,0.544,0.312
		h1.317l-2.869,3.103c-0.155,0.154-0.155,0.387-0.077,0.62c0.077,0.233,0.311,0.31,0.543,0.31h4.499v3.88h-5.664
		c-0.619,0-1.162,0.544-1.162,1.162c0,0.622,0.543,1.166,1.162,1.166h22.574c0.621,0,1.162-0.544,1.162-1.166
		C543.999,528.099,543.454,527.555,542.834,527.555L542.834,527.555z"/>
	<circle fill="#A5D5A1" cx="749.252" cy="311.914" r="39.639"/>
	<path fill="#636363" d="M760.5,319.127H756v-1.705h0.854c0.312,0,0.544-0.233,0.544-0.545c0-0.31-0.232-0.543-0.544-0.543h-2.87
		c-0.31,0-0.542,0.233-0.542,0.543c0,0.312,0.232,0.545,0.542,0.545h0.854v1.705h-8.998v-3.878h4.498
		c0.234,0,0.467-0.155,0.544-0.311c0.076-0.232,0.076-0.466-0.077-0.619l-2.871-3.104h1.318c0.232,0,0.466-0.154,0.542-0.309
		c0.079-0.233,0.079-0.466-0.076-0.621l-2.638-2.87h1.318c0.233,0,0.465-0.154,0.544-0.311c0.078-0.233,0.078-0.467-0.079-0.622
		l-3.645-3.876c-0.231-0.234-0.62-0.234-0.854,0l-3.646,3.876c-0.155,0.155-0.155,0.389-0.077,0.622
		c0.077,0.231,0.308,0.311,0.543,0.311h1.318l-2.639,2.87c-0.153,0.155-0.153,0.388-0.078,0.621
		c0.078,0.232,0.311,0.309,0.545,0.309h1.316l-2.868,3.104c-0.154,0.153-0.154,0.387-0.077,0.619
		c0.077,0.233,0.309,0.311,0.543,0.311h4.501v3.878h-5.665c-0.621,0-1.164,0.545-1.164,1.165c0,0.619,0.543,1.163,1.164,1.163
		h22.573c0.621,0,1.162-0.544,1.162-1.163C761.664,319.672,761.119,319.127,760.5,319.127L760.5,319.127z"/>
	<circle fill="#A5D5A1" cx="52.893" cy="342.227" r="39.639"/>
	<path fill="#636363" d="M64.141,349.44h-4.5v-1.707h0.853c0.311,0,0.543-0.231,0.543-0.542s-0.232-0.544-0.543-0.544h-2.871
		c-0.31,0-0.542,0.233-0.542,0.544s0.231,0.542,0.542,0.542h0.854v1.707h-8.999v-3.879h4.499c0.233,0,0.466-0.154,0.542-0.31
		c0.077-0.231,0.077-0.467-0.077-0.621l-2.87-3.103h1.319c0.231,0,0.465-0.154,0.542-0.311c0.077-0.231,0.077-0.466-0.076-0.619
		l-2.638-2.872h1.317c0.234,0,0.467-0.154,0.544-0.31c0.077-0.232,0.077-0.464-0.077-0.622l-3.646-3.878
		c-0.233-0.233-0.621-0.233-0.854,0l-3.646,3.878c-0.155,0.158-0.155,0.39-0.078,0.622c0.078,0.233,0.311,0.31,0.543,0.31h1.319
		l-2.638,2.872c-0.155,0.153-0.155,0.388-0.078,0.619c0.078,0.232,0.311,0.311,0.544,0.311h1.318l-2.87,3.103
		c-0.156,0.154-0.156,0.39-0.079,0.621c0.079,0.233,0.312,0.31,0.544,0.31h4.499v3.879h-5.663c-0.621,0-1.165,0.545-1.165,1.163
		c0,0.622,0.543,1.165,1.165,1.165h22.573c0.621,0,1.163-0.543,1.163-1.165C65.304,349.985,64.761,349.44,64.141,349.44
		L64.141,349.44z"/>
</g>
</svg>
